<svg width="60" height="60" viewBox="0 0 60 60" fill="none" xmlns="http://www.w3.org/2000/svg">
<path d="M48.3035 13.9055C47.9238 13.7092 47.5542 13.4941 47.196 13.2609C46.1545 12.5724 45.1996 11.7611 44.3519 10.8445C42.2308 8.41758 41.4386 5.95547 41.1468 4.23164H41.1585C40.9148 2.80078 41.0156 1.875 41.0308 1.875H31.3699V39.232C31.3699 39.7336 31.3699 40.2293 31.3488 40.7191C31.3488 40.7801 31.3429 40.8363 31.3394 40.902C31.3394 40.9289 31.3394 40.957 31.3335 40.9852V41.0063C31.2317 42.3466 30.802 43.6414 30.0823 44.7768C29.3626 45.9121 28.375 46.8532 27.2062 47.5172C25.9881 48.2102 24.6104 48.5737 23.2089 48.5719C18.7077 48.5719 15.0597 44.9016 15.0597 40.3688C15.0597 35.8359 18.7077 32.1656 23.2089 32.1656C24.061 32.1648 24.9078 32.2989 25.7179 32.5629L25.7296 22.7262C23.2703 22.4085 20.7718 22.6039 18.3918 23.3002C16.0118 23.9965 13.8019 25.1784 11.9015 26.7715C10.2363 28.2183 8.83644 29.9446 7.76478 31.8727C7.35697 32.5758 5.8183 35.4012 5.63197 39.9867C5.51478 42.5895 6.29642 45.2859 6.66908 46.4004V46.4238C6.90345 47.0801 7.81165 49.3195 9.29173 51.2074C10.4852 52.7218 11.8953 54.0521 13.4765 55.1555V55.132L13.4999 55.1555C18.1769 58.3336 23.3624 58.125 23.3624 58.125C24.2601 58.0887 27.2671 58.125 30.682 56.5066C34.4695 54.7125 36.6257 52.0395 36.6257 52.0395C38.0032 50.4423 39.0986 48.6221 39.8648 46.657C40.739 44.359 41.0308 41.6027 41.0308 40.5012V20.6824C41.148 20.7527 42.7089 21.7852 42.7089 21.7852C42.7089 21.7852 44.9577 23.2266 48.4663 24.1652C50.9835 24.8332 54.3749 24.9738 54.3749 24.9738V15.3832C53.1867 15.5121 50.7738 15.1371 48.3035 13.9055Z" fill="white"/>
</svg>
