<svg width="60" height="60" viewBox="0 0 60 60" fill="none" xmlns="http://www.w3.org/2000/svg">
<g clip-path="url(#clip0_258_415)">
<path d="M59.6065 17.4363C59.6065 12.1629 55.7276 7.9207 50.9346 7.9207C44.4424 7.61719 37.8213 7.5 31.0549 7.5H28.9455C22.1955 7.5 15.5627 7.61719 9.07054 7.92187C4.28929 7.92187 0.410381 12.1875 0.410381 17.4609C0.117412 21.6316 -0.0068069 25.8035 0.000224345 29.9754C-0.0114944 34.1473 0.121318 38.323 0.398662 42.5027C0.398662 47.7762 4.27757 52.0535 9.05882 52.0535C15.8791 52.3699 22.8752 52.5105 29.9885 52.4988C37.1135 52.5223 44.0901 52.3738 50.9182 52.0535C55.7112 52.0535 59.5901 47.7762 59.5901 42.5027C59.8713 38.3191 60.0002 34.1473 59.9885 29.9637C60.0151 25.7918 59.8877 21.616 59.6065 17.4363ZM24.258 41.4715V18.4441L41.2502 29.952L24.258 41.4715Z" fill="white"/>
</g>
<defs>
<clipPath id="clip0_258_415">
<rect width="60" height="60" fill="white"/>
</clipPath>
</defs>
</svg>
